<svg version="1.1" viewBox="0.0 0.0 651.9343832020998 505.16010498687666" fill="none" stroke="none" stroke-linecap="square" stroke-miterlimit="10" xmlns:xlink="http://www.w3.org/1999/xlink" xmlns="http://www.w3.org/2000/svg"><clipPath id="p.0"><path d="m0 0l651.9344 0l0 505.1601l-651.9344 0l0 -505.1601z" clip-rule="nonzero"/></clipPath><g clip-path="url(#p.0)"><path fill="#000000" fill-opacity="0.0" d="m0 0l651.9344 0l0 505.1601l-651.9344 0z" fill-rule="evenodd"/><path fill="#000000" fill-opacity="0.0" d="m440.0246 107.97507l-33.984253 122.456696" fill-rule="evenodd"/><path stroke="#000000" stroke-width="2.0" stroke-linejoin="round" stroke-linecap="butt" d="m440.0246 107.97507l-33.984253 122.456696" fill-rule="evenodd"/><path fill="#000000" fill-opacity="0.0" d="m420.9134 237.77428l104.188965 -44.944885" fill-rule="evenodd"/><path stroke="#000000" stroke-width="2.0" stroke-linejoin="round" stroke-linecap="butt" d="m420.9134 237.77428l104.188965 -44.944885" fill-rule="evenodd"/><path fill="#000000" fill-opacity="0.0" d="m406.0315 260.19553l25.7323 138.92914" fill-rule="evenodd"/><path stroke="#000000" stroke-width="2.0" stroke-linejoin="round" stroke-linecap="butt" d="m406.0315 260.19553l25.7323 138.92914" fill-rule="evenodd"/><path fill="#000000" fill-opacity="0.0" d="m420.9134 254.77821l104.188965 64.28346" fill-rule="evenodd"/><path stroke="#000000" stroke-width="2.0" stroke-linejoin="round" stroke-linecap="butt" d="m420.9134 254.77821l104.188965 64.28346" fill-rule="evenodd"/><path fill="#000000" fill-opacity="0.0" d="m121.68766 324.89108l39.937004 0" fill-rule="evenodd"/><path stroke="#000000" stroke-width="2.0" stroke-linejoin="round" stroke-linecap="butt" d="m121.68766 324.89108l39.937004 0" fill-rule="evenodd"/><path fill="#000000" fill-opacity="0.0" d="m122.997375 147.07843l38.645676 0" fill-rule="evenodd"/><path stroke="#000000" stroke-width="2.0" stroke-linejoin="round" stroke-linecap="butt" d="m122.997375 147.07843l38.645676 0" fill-rule="evenodd"/><path fill="#000000" fill-opacity="0.0" d="m191.39633 147.07742l55.716522 76.063" fill-rule="evenodd"/><path stroke="#000000" stroke-width="2.0" stroke-linejoin="round" stroke-linecap="butt" d="m191.39633 147.07742l55.716522 76.063" fill-rule="evenodd"/><path fill="#000000" fill-opacity="0.0" d="m191.39633 324.89108l55.905502 -62.86615" fill-rule="evenodd"/><path stroke="#000000" stroke-width="2.0" stroke-linejoin="round" stroke-linecap="butt" d="m191.39633 324.89108l55.905502 -62.86615" fill-rule="evenodd"/><path fill="#000000" fill-opacity="0.0" d="m329.47516 245.31297l61.66928 0" fill-rule="evenodd"/><path stroke="#000000" stroke-width="2.0" stroke-linejoin="round" stroke-linecap="butt" d="m329.47516 245.31297l61.66928 0" fill-rule="evenodd"/><path fill="#e7fee0" d="m40.824146 105.99182l82.17323 0l0 82.17323l-82.17323 0z" fill-rule="evenodd"/><path stroke="#6aa84f" stroke-width="1.0" stroke-linejoin="round" stroke-linecap="butt" d="m40.824146 105.99182l82.17323 0l0 82.17323l-82.17323 0z" fill-rule="evenodd"/><path fill="#e7fee0" d="m22.979002 284.46588l98.70866 0l0 80.8504l-98.70866 0z" fill-rule="evenodd"/><path stroke="#6aa84f" stroke-width="1.0" stroke-linejoin="round" stroke-linecap="butt" d="m22.979002 284.46588l98.70866 0l0 80.8504l-98.70866 0z" fill-rule="evenodd"/><path fill="#e7fee0" d="m247.30193 204.22635l82.17323 0l0 82.17322l-82.17323 0z" fill-rule="evenodd"/><path stroke="#6aa84f" stroke-width="1.0" stroke-linejoin="round" stroke-linecap="butt" d="m247.30193 204.22635l82.17323 0l0 82.17322l-82.17323 0z" fill-rule="evenodd"/><path fill="#e7fee0" d="m398.93796 25.801838l82.17325 0l0 82.17323l-82.17325 0z" fill-rule="evenodd"/><path stroke="#6aa84f" stroke-width="1.0" stroke-linejoin="round" stroke-linecap="butt" d="m398.93796 25.801838l82.17325 0l0 82.17323l-82.17325 0z" fill-rule="evenodd"/><path fill="#e7fee0" d="m525.10236 151.74278l98.70868 0l0 82.17323l-98.70868 0z" fill-rule="evenodd"/><path stroke="#6aa84f" stroke-width="1.0" stroke-linejoin="round" stroke-linecap="butt" d="m525.10236 151.74278l98.70868 0l0 82.17323l-98.70868 0z" fill-rule="evenodd"/><path fill="#e7fee0" d="m525.10236 277.97507l98.70868 0l0 82.17322l-98.70868 0z" fill-rule="evenodd"/><path stroke="#6aa84f" stroke-width="1.0" stroke-linejoin="round" stroke-linecap="butt" d="m525.10236 277.97507l98.70868 0l0 82.17322l-98.70868 0z" fill-rule="evenodd"/><path fill="#e7fee0" d="m382.40137 399.11942l98.70868 0l0 82.17325l-98.70868 0z" fill-rule="evenodd"/><path stroke="#6aa84f" stroke-width="1.0" stroke-linejoin="round" stroke-linecap="butt" d="m382.40137 399.11942l98.70868 0l0 82.17325l-98.70868 0z" fill-rule="evenodd"/><path fill="#dddddd" d="m391.1496 230.43176l29.763794 0l0 29.763763l-29.763794 0z" fill-rule="evenodd"/><path stroke="#000000" stroke-width="1.0" stroke-linejoin="round" stroke-linecap="butt" d="m391.1496 230.43176l29.763794 0l0 29.763763l-29.763794 0z" fill-rule="evenodd"/><path fill="#dddddd" d="m161.63255 310.0092l29.763779 0l0 29.763794l-29.763779 0z" fill-rule="evenodd"/><path stroke="#000000" stroke-width="1.0" stroke-linejoin="round" stroke-linecap="butt" d="m161.63255 310.0092l29.763779 0l0 29.763794l-29.763779 0z" fill-rule="evenodd"/><path fill="#dddddd" d="m161.63255 132.19554l29.763779 0l0 29.763779l-29.763779 0z" fill-rule="evenodd"/><path stroke="#000000" stroke-width="1.0" stroke-linejoin="round" stroke-linecap="butt" d="m161.63255 132.19554l29.763779 0l0 29.763779l-29.763779 0z" fill-rule="evenodd"/><path fill="#000000" fill-opacity="0.0" d="m420.9134 245.31364l0 0" fill-rule="evenodd"/><path stroke="#000000" stroke-width="1.0" stroke-linejoin="round" stroke-linecap="butt" d="m420.9134 245.31364l0 0" fill-rule="evenodd"/><path fill="#000000" fill-opacity="0.0" d="m29.165354 148.99869l104.18897 0l0 33.921265l-104.18897 0z" fill-rule="evenodd"/><path fill="#000000" d="m44.723713 169.51869l0 -8.59375l1.640625 0l0 3.09375q0.765625 -0.859375 1.8125 -0.859375q1.125 0 1.875 0.828125q0.75 0.8125 0.75 2.359375q0 1.59375 -0.765625 2.453125q-0.765625 0.859375 -1.84375 0.859375q-0.53125 0 -1.046875 -0.265625q-0.515625 -0.265625 -0.890625 -0.796875l0 0.921875l-1.53125 0zm1.625 -3.25q0 0.96875 0.3125 1.4375q0.421875 0.65625 1.140625 0.65625q0.53125 0 0.921875 -0.46875q0.390625 -0.46875 0.390625 -1.46875q0 -1.0625 -0.390625 -1.53125q-0.390625 -0.484375 -1.0 -0.484375q-0.578125 0 -0.984375 0.46875q-0.390625 0.453125 -0.390625 1.390625zm9.376953 1.265625l1.640625 0.28125q-0.3125 0.90625 -1.0 1.375q-0.6875 0.46875 -1.703125 0.46875q-1.625 0 -2.40625 -1.0625q-0.625 -0.84375 -0.625 -2.140625q0 -1.546875 0.8125 -2.421875q0.8125 -0.875 2.046875 -0.875q1.390625 0 2.1875 0.921875q0.8125 0.90625 0.765625 2.796875l-4.125 0q0.03125 0.734375 0.40625 1.140625q0.375 0.40625 0.953125 0.40625q0.375 0 0.640625 -0.203125q0.265625 -0.21875 0.40625 -0.6875zm0.09375 -1.65625q-0.015625 -0.71875 -0.375 -1.09375q-0.34375 -0.375 -0.859375 -0.375q-0.53125 0 -0.890625 0.390625q-0.34375 0.40625 -0.34375 1.078125l2.46875 0zm8.626949 3.640625l-1.6406212 0l0 -3.171875q0 -1.015625 -0.109375 -1.3125q-0.09375 -0.296875 -0.34375 -0.453125q-0.234375 -0.171875 -0.5625 -0.171875q-0.4375 0 -0.78125 0.234375q-0.328125 0.234375 -0.453125 0.625q-0.125 0.390625 -0.125 1.4375l0 2.8125l-1.65625 0l0 -6.21875l1.53125 0l0 0.90625q0.8125 -1.046875 2.0625 -1.046875q0.53125 0 0.984375 0.203125q0.453125 0.1875 0.6874962 0.5q0.234375 0.296875 0.3125 0.6875q0.09375 0.375 0.09375 1.09375l0 3.875zm1.6738281 -7.0625l0 -1.53125l1.65625 0l0 1.53125l-1.65625 0zm0 7.0625l0 -6.21875l1.65625 0l0 6.21875l-1.65625 0zm3.1777344 0.40625l1.890625 0.234375q0.046875 0.328125 0.21875 0.453125q0.234375 0.171875 0.734375 0.171875q0.640625 0 0.96875 -0.1875q0.21875 -0.140625 0.328125 -0.421875q0.078125 -0.203125 0.078125 -0.75l0 -0.921875q-0.75 1.015625 -1.875 1.015625q-1.25 0 -1.984375 -1.0625q-0.5625 -0.84375 -0.5625 -2.078125q0 -1.578125 0.75 -2.390625q0.75 -0.828125 1.875 -0.828125q1.140625 0 1.890625 1.015625l0 -0.875l1.546875 0l0 5.578125q0 1.109375 -0.1875 1.640625q-0.171875 0.546875 -0.5 0.859375q-0.328125 0.3125 -0.875 0.484375q-0.546875 0.1875 -1.390625 0.1875q-1.578125 0 -2.25 -0.546875q-0.65625 -0.546875 -0.65625 -1.375q0 -0.078125 0 -0.203125zm1.484375 -3.640625q0 0.984375 0.375 1.453125q0.390625 0.453125 0.953125 0.453125q0.59375 0 1.015625 -0.46875q0.421875 -0.484375 0.421875 -1.40625q0 -0.96875 -0.40625 -1.4375q-0.390625 -0.46875 -1.0 -0.46875q-0.59375 0 -0.984375 0.46875q-0.375 0.453125 -0.375 1.40625zm11.658203 3.234375l-1.640625 0l0 -3.171875q0 -1.015625 -0.109375 -1.3125q-0.09375 -0.296875 -0.34375 -0.453125q-0.234375 -0.171875 -0.5625 -0.171875q-0.4375 0 -0.78125 0.234375q-0.328125 0.234375 -0.453125 0.625q-0.125 0.390625 -0.125 1.4375l0 2.8125l-1.65625 0l0 -6.21875l1.53125 0l0 0.90625q0.8125 -1.046875 2.0625 -1.046875q0.53125 0 0.984375 0.203125q0.453125 0.1875 0.6875 0.5q0.234375 0.296875 0.3125 0.6875q0.09375 0.375 0.09375 1.09375l0 3.875zm1.4863281 -2.296875l0 -1.640625l3.234375 0l0 1.640625l-3.234375 0zm9.605469 -2.09375l-1.609375 0.296875q-0.09375 -0.484375 -0.390625 -0.71875q-0.28125 -0.25 -0.734375 -0.25q-0.625 0 -1.0 0.421875q-0.359375 0.421875 -0.359375 1.421875q0 1.109375 0.375 1.5625q0.375 0.453125 1.0 0.453125q0.46875 0 0.765625 -0.265625q0.296875 -0.265625 0.421875 -0.921875l1.625 0.28125q-0.25 1.109375 -0.96875 1.6875q-0.71875 0.5625 -1.921875 0.5625q-1.359375 0 -2.171875 -0.859375q-0.8125 -0.859375 -0.8125 -2.390625q0 -1.53125 0.8125 -2.390625q0.8125 -0.859375 2.203125 -0.859375q1.140625 0 1.8125 0.484375q0.671875 0.484375 0.953125 1.484375zm1.2519531 4.390625l0 -8.59375l1.65625 0l0 8.59375l-1.65625 0zm3.3339844 -7.0625l0 -1.53125l1.65625 0l0 1.53125l-1.65625 0zm0 7.0625l0 -6.21875l1.65625 0l0 6.21875l-1.65625 0zm6.9433594 -1.984375l1.640625 0.28125q-0.3125 0.90625 -1.0 1.375q-0.6875 0.46875 -1.703125 0.46875q-1.625 0 -2.40625 -1.0625q-0.625 -0.84375 -0.625 -2.140625q0 -1.546875 0.8125 -2.421875q0.8125 -0.875 2.046875 -0.875q1.390625 0 2.1875 0.921875q0.8125 0.90625 0.765625 2.796875l-4.125 0q0.03125 0.734375 0.40625 1.140625q0.375 0.40625 0.953125 0.40625q0.375 0 0.640625 -0.203125q0.265625 -0.21875 0.40625 -0.6875zm0.09375 -1.65625q-0.015625 -0.71875 -0.375 -1.09375q-0.34375 -0.375 -0.859375 -0.375q-0.53125 0 -0.890625 0.390625q-0.34375 0.40625 -0.34375 1.078125l2.46875 0zm8.626953 3.640625l-1.640625 0l0 -3.171875q0 -1.015625 -0.109375 -1.3125q-0.09375 -0.296875 -0.34375 -0.453125q-0.234375 -0.171875 -0.5625 -0.171875q-0.4375 0 -0.78125 0.234375q-0.328125 0.234375 -0.453125 0.625q-0.125 0.390625 -0.125 1.4375l0 2.8125l-1.65625 0l0 -6.21875l1.53125 0l0 0.90625q0.8125 -1.046875 2.0625 -1.046875q0.53125 0 0.984375 0.203125q0.453125 0.1875 0.6875 0.5q0.234375 0.296875 0.3125 0.6875q0.09375 0.375 0.09375 1.09375l0 3.875zm4.533203 -6.21875l0 1.3125l-1.125 0l0 2.5q0 0.765625 0.03125 0.890625q0.03125 0.125 0.140625 0.21875q0.125 0.078125 0.28125 0.078125q0.234375 0 0.65625 -0.171875l0.140625 1.28125q-0.5625 0.25 -1.296875 0.25q-0.4375 0 -0.796875 -0.140625q-0.359375 -0.15625 -0.53125 -0.390625q-0.15625 -0.25 -0.234375 -0.640625q-0.046875 -0.296875 -0.046875 -1.171875l0 -2.703125l-0.75 0l0 -1.3125l0.75 0l0 -1.234375l1.65625 -0.96875l0 2.203125l1.125 0z" fill-rule="nonzero"/><path fill="#000000" fill-opacity="0.0" d="m14.097113 324.89108l116.472435 0l0 33.921265l-116.472435 0z" fill-rule="evenodd"/><path fill="#000000" d="m27.722006 339.19232l1.515625 0l0 0.84375q0.828125 -0.984375 1.953125 -0.984375q0.59375 0 1.0312519 0.25q0.4375 0.234375 0.71875 0.734375q0.40625 -0.5 0.875 -0.734375q0.484375 -0.25 1.03125 -0.25q0.671875 0 1.140625 0.28125q0.484375 0.265625 0.71875 0.8125q0.171875 0.390625 0.171875 1.28125l0 3.984375l-1.640625 0l0 -3.5625q0 -0.921875 -0.171875 -1.1875q-0.234375 -0.359375 -0.703125 -0.359375q-0.34375 0 -0.65625 0.21875q-0.296875 0.203125 -0.4375 0.609375q-0.140625 0.40625 -0.140625 1.296875l0 2.984375l-1.6406269 0l0 -3.40625q0 -0.90625 -0.09375 -1.171875q-0.078125 -0.265625 -0.265625 -0.390625q-0.1875 -0.140625 -0.5 -0.140625q-0.375 0 -0.6875 0.21875q-0.296875 0.203125 -0.4375 0.59375q-0.125 0.375 -0.125 1.265625l0 3.03125l-1.65625 0l0 -6.21875zm12.029299 1.890625l-1.5 -0.265625q0.25 -0.90625 0.859375 -1.328125q0.625 -0.4375 1.84375 -0.4375q1.09375 0 1.625 0.265625q0.546875 0.25 0.765625 0.65625q0.21875 0.390625 0.21875 1.46875l-0.015625 1.921875q0 0.828125 0.078125 1.21875q0.078125 0.375 0.296875 0.828125l-1.625 0q-0.0625 -0.171875 -0.15625 -0.484375q-0.046875 -0.15625 -0.0625 -0.203125q-0.421875 0.421875 -0.90625 0.625q-0.46875 0.203125 -1.015625 0.203125q-0.96875 0 -1.53125 -0.515625q-0.546875 -0.53125 -0.546875 -1.328125q0 -0.53125 0.25 -0.9375q0.265625 -0.40625 0.71875 -0.625q0.453125 -0.234375 1.3125 -0.390625q1.140625 -0.21875 1.59375 -0.40625l0 -0.15625q0 -0.484375 -0.234375 -0.6875q-0.234375 -0.203125 -0.890625 -0.203125q-0.4375 0 -0.6875 0.171875q-0.234375 0.171875 -0.390625 0.609375zm2.203125 1.34375q-0.3125 0.09375 -1.0 0.25q-0.6875 0.140625 -0.90625 0.28125q-0.3125 0.234375 -0.3125 0.578125q0 0.34375 0.25 0.609375q0.265625 0.25 0.65625 0.25q0.453125 0 0.859375 -0.296875q0.296875 -0.21875 0.390625 -0.546875q0.0625 -0.203125 0.0625 -0.796875l0 -0.328125zm3.2363281 2.984375l0 -8.59375l1.65625 0l0 8.59375l-1.65625 0zm3.3339844 -7.0625l0 -1.53125l1.65625 0l0 1.53125l-1.65625 0zm0 7.0625l0 -6.21875l1.65625 0l0 6.21875l-1.65625 0zm8.755859 -4.390625l-1.609375 0.296875q-0.09375 -0.484375 -0.390625 -0.71875q-0.28125 -0.25 -0.734375 -0.25q-0.625 0 -1.0 0.421875q-0.359375 0.421875 -0.359375 1.421875q0 1.109375 0.375 1.5625q0.375 0.453125 1.0 0.453125q0.46875 0 0.765625 -0.265625q0.296875 -0.265625 0.421875 -0.921875l1.625 0.28125q-0.25 1.109375 -0.96875 1.6875q-0.71875 0.5625 -1.921875 0.5625q-1.359375 0 -2.171875 -0.859375q-0.8125 -0.859375 -0.8125 -2.390625q0 -1.53125 0.8125 -2.390625q0.8125 -0.859375 2.203125 -0.859375q1.140625 0 1.8125 0.484375q0.671875 0.484375 0.953125 1.484375zm1.2519531 -2.671875l0 -1.53125l1.65625 0l0 1.53125l-1.65625 0zm0 7.0625l0 -6.21875l1.65625 0l0 6.21875l-1.65625 0zm2.9589844 -3.203125q0 -0.8125 0.40625 -1.578125q0.40625 -0.78125 1.140625 -1.171875q0.734375 -0.40625 1.65625 -0.40625q1.40625 0 2.3125 0.921875q0.90625 0.90625 0.90625 2.3125q0 1.40625 -0.921875 2.34375q-0.90625 0.921875 -2.28125 0.921875q-0.859375 0 -1.640625 -0.390625q-0.765625 -0.390625 -1.171875 -1.125q-0.40625 -0.75 -0.40625 -1.828125zm1.6875 0.09375q0 0.921875 0.4375 1.421875q0.4375 0.484375 1.078125 0.484375q0.65625 0 1.078125 -0.484375q0.4375 -0.5 0.4375 -1.4375q0 -0.90625 -0.4375 -1.390625q-0.421875 -0.5 -1.078125 -0.5q-0.640625 0 -1.078125 0.5q-0.4375 0.484375 -0.4375 1.40625zm10.111328 3.109375l0 -0.9375q-0.328125 0.5 -0.890625 0.796875q-0.546875 0.28125 -1.171875 0.28125q-0.625 0 -1.125 -0.265625q-0.5 -0.28125 -0.71875 -0.78125q-0.21875 -0.5 -0.21875 -1.375l0 -3.9375l1.640625 0l0 2.859375q0 1.3125 0.09375 1.609375q0.09375 0.296875 0.328125 0.46875q0.25 0.171875 0.609375 0.171875q0.421875 0 0.75 -0.234375q0.34375 -0.234375 0.46875 -0.578125q0.125 -0.34375 0.125 -1.671875l0 -2.625l1.640625 0l0 6.21875l-1.53125 0zm2.6582031 -1.78125l1.65625 -0.25q0.109375 0.484375 0.421875 0.734375q0.328125 0.25 0.90625 0.25q0.640625 0 0.953125 -0.234375q0.21875 -0.171875 0.21875 -0.4375q0 -0.1875 -0.109375 -0.3125q-0.125 -0.125 -0.546875 -0.21875q-2.0 -0.4375 -2.53125 -0.796875q-0.734375 -0.515625 -0.734375 -1.40625q0 -0.8125 0.625 -1.359375q0.640625 -0.546875 1.984375 -0.546875q1.28125 0 1.90625 0.421875q0.625 0.40625 0.859375 1.21875l-1.5625 0.28125q-0.09375 -0.359375 -0.375 -0.546875q-0.28125 -0.203125 -0.796875 -0.203125q-0.640625 0 -0.921875 0.1875q-0.1875 0.125 -0.1875 0.328125q0 0.1875 0.15625 0.3125q0.21875 0.15625 1.53125 0.453125q1.328125 0.296875 1.84375 0.734375q0.515625 0.4375 0.515625 1.21875q0 0.859375 -0.71875 1.484375q-0.703125 0.609375 -2.109375 0.609375q-1.265625 0 -2.015625 -0.515625q-0.734375 -0.515625 -0.96875 -1.40625zm7.064453 -0.515625l0 -1.640625l3.234375 0l0 1.640625l-3.234375 0zm9.605469 -2.09375l-1.609375 0.296875q-0.09375 -0.484375 -0.390625 -0.71875q-0.28125 -0.25 -0.734375 -0.25q-0.625 0 -1.0 0.421875q-0.359375 0.421875 -0.359375 1.421875q0 1.109375 0.375 1.5625q0.375 0.453125 1.0 0.453125q0.46875 0 0.765625 -0.265625q0.296875 -0.265625 0.421875 -0.921875l1.625 0.28125q-0.25 1.109375 -0.96875 1.6875q-0.71875 0.5625 -1.921875 0.5625q-1.359375 0 -2.171875 -0.859375q-0.8125 -0.859375 -0.8125 -2.390625q0 -1.53125 0.8125 -2.390625q0.8125 -0.859375 2.203125 -0.859375q1.140625 0 1.8125 0.484375q0.671875 0.484375 0.953125 1.484375zm1.2519531 4.390625l0 -8.59375l1.65625 0l0 8.59375l-1.65625 0zm3.3339844 -7.0625l0 -1.53125l1.65625 0l0 1.53125l-1.65625 0zm0 7.0625l0 -6.21875l1.65625 0l0 6.21875l-1.65625 0zm6.9433594 -1.984375l1.640625 0.28125q-0.3125 0.90625 -1.0 1.375q-0.6875 0.46875 -1.703125 0.46875q-1.625 0 -2.40625 -1.0625q-0.625 -0.84375 -0.625 -2.140625q0 -1.546875 0.8125 -2.421875q0.8125 -0.875 2.046875 -0.875q1.390625 0 2.1875 0.921875q0.8125 0.90625 0.765625 2.796875l-4.125 0q0.03125 0.734375 0.40625 1.140625q0.375 0.40625 0.953125 0.40625q0.375 0 0.640625 -0.203125q0.265625 -0.21875 0.40625 -0.6875zm0.09375 -1.65625q-0.015625 -0.71875 -0.375 -1.09375q-0.34375 -0.375 -0.859375 -0.375q-0.53125 0 -0.890625 0.390625q-0.34375 0.40625 -0.34375 1.078125l2.46875 0zm8.626953 3.640625l-1.640625 0l0 -3.171875q0 -1.015625 -0.109375 -1.3125q-0.09375 -0.296875 -0.34375 -0.453125q-0.234375 -0.171875 -0.5625 -0.171875q-0.4375 0 -0.78125 0.234375q-0.328125 0.234375 -0.453125 0.625q-0.125 0.390625 -0.125 1.4375l0 2.8125l-1.65625 0l0 -6.21875l1.53125 0l0 0.90625q0.8125 -1.046875 2.0625 -1.046875q0.53125 0 0.984375 0.203125q0.453125 0.1875 0.6875 0.5q0.234375 0.296875 0.3125 0.6875q0.09375 0.375 0.09375 1.09375l0 3.875zm4.533203 -6.21875l0 1.3125l-1.125 0l0 2.5q0 0.765625 0.03125 0.890625q0.03125 0.125 0.140625 0.21875q0.125 0.078125 0.28125 0.078125q0.234375 0 0.65625 -0.171875l0.140625 1.28125q-0.5625 0.25 -1.296875 0.25q-0.4375 0 -0.796875 -0.140625q-0.359375 -0.15625 -0.53125 -0.390625q-0.15625 -0.25 -0.234375 -0.640625q-0.046875 -0.296875 -0.046875 -1.171875l0 -2.703125l-0.75 0l0 -1.3125l0.75 0l0 -1.234375l1.65625 -0.96875l0 2.203125l1.125 0z" fill-rule="nonzero"/><path fill="#000000" fill-opacity="0.0" d="m236.29396 245.31364l104.18898 0l0 33.92125l-104.18898 0z" fill-rule="evenodd"/><path fill="#000000" d="m267.47635 265.83365l-1.640625 0l0 -6.21875l1.53125 0l0 0.875q0.390625 -0.625 0.703125 -0.8125q0.3125 -0.203125 0.703125 -0.203125q0.5625 0 1.09375 0.3125l-0.515625 1.421875q-0.421875 -0.265625 -0.765625 -0.265625q-0.359375 0 -0.59375 0.203125q-0.234375 0.1875 -0.375 0.6875q-0.140625 0.484375 -0.140625 2.078125l0 1.921875zm6.701172 -1.984375l1.640625 0.28125q-0.3125 0.90625 -1.0 1.375q-0.6875 0.46875 -1.703125 0.46875q-1.625 0 -2.40625 -1.0625q-0.625 -0.84375 -0.625 -2.140625q0 -1.546875 0.8125 -2.421875q0.8125 -0.875 2.046875 -0.875q1.390625 0 2.1875 0.921875q0.8125 0.90625 0.765625 2.796875l-4.125 0q0.03125 0.734375 0.40625 1.140625q0.375 0.40625 0.953125 0.40625q0.375 0 0.640625 -0.203125q0.265625 -0.21875 0.40625 -0.6875zm0.09375 -1.65625q-0.015625 -0.71875 -0.375 -1.09375q-0.34375 -0.375 -0.859375 -0.375q-0.53125 0 -0.890625 0.390625q-0.34375 0.40625 -0.34375 1.078125l2.46875 0zm2.3925781 1.859375l1.65625 -0.25q0.109375 0.484375 0.421875 0.734375q0.328125 0.25 0.90625 0.25q0.640625 0 0.953125 -0.234375q0.21875 -0.171875 0.21875 -0.4375q0 -0.1875 -0.109375 -0.3125q-0.125 -0.125 -0.546875 -0.21875q-2.0 -0.4375 -2.53125 -0.796875q-0.734375 -0.515625 -0.734375 -1.40625q0 -0.8125 0.625 -1.359375q0.640625 -0.546875 1.984375 -0.546875q1.28125 0 1.90625 0.421875q0.625 0.40625 0.859375 1.21875l-1.5625 0.28125q-0.09375 -0.359375 -0.375 -0.546875q-0.28125 -0.203125 -0.796875 -0.203125q-0.640625 0 -0.921875 0.1875q-0.1875 0.125 -0.1875 0.328125q0 0.1875 0.15625 0.3125q0.21875 0.15625 1.53125 0.453125q1.328125 0.296875 1.84375 0.734375q0.515625 0.4375 0.515625 1.21875q0 0.859375 -0.71875 1.484375q-0.703125 0.609375 -2.109375 0.609375q-1.265625 0 -2.015625 -0.515625q-0.734375 -0.515625 -0.96875 -1.40625zm6.876953 -1.421875q0 -0.8125 0.40625 -1.578125q0.40625 -0.78125 1.140625 -1.171875q0.734375 -0.40625 1.65625 -0.40625q1.40625 0 2.3125 0.921875q0.90625 0.90625 0.90625 2.3125q0 1.40625 -0.921875 2.34375q-0.90625 0.921875 -2.28125 0.921875q-0.859375 0 -1.640625 -0.390625q-0.765625 -0.390625 -1.171875 -1.125q-0.40625 -0.75 -0.40625 -1.828125zm1.6875 0.09375q0 0.921875 0.4375 1.421875q0.4375 0.484375 1.078125 0.484375q0.65625 0 1.078125 -0.484375q0.4375 -0.5 0.4375 -1.4375q0 -0.90625 -0.4375 -1.390625q-0.421875 -0.5 -1.078125 -0.5q-0.640625 0 -1.078125 0.5q-0.4375 0.484375 -0.4375 1.40625zm6.017578 3.109375l0 -8.59375l1.65625 0l0 8.59375l-1.65625 0zm5.0527344 0l-2.515625 -6.21875l1.734375 0l1.171875 3.171875l0.34375 1.0625q0.125 -0.40625 0.15625 -0.53125q0.09375 -0.265625 0.1875 -0.53125l1.171875 -3.171875l1.703125 0l-2.46875 6.21875l-1.484375 0zm8.564453 -1.984375l1.640625 0.28125q-0.3125 0.90625 -1.0 1.375q-0.6875 0.46875 -1.703125 0.46875q-1.625 0 -2.40625 -1.0625q-0.625 -0.84375 -0.625 -2.140625q0 -1.546875 0.8125 -2.421875q0.8125 -0.875 2.046875 -0.875q1.390625 0 2.1875 0.921875q0.8125 0.90625 0.765625 2.796875l-4.125 0q0.03125 0.734375 0.40625 1.140625q0.375 0.40625 0.953125 0.40625q0.375 0 0.640625 -0.203125q0.265625 -0.21875 0.40625 -0.6875zm0.09375 -1.65625q-0.015625 -0.71875 -0.375 -1.09375q-0.34375 -0.375 -0.859375 -0.375q-0.53125 0 -0.890625 0.390625q-0.34375 0.40625 -0.34375 1.078125l2.46875 0zm4.548828 3.640625l-1.640625 0l0 -6.21875l1.53125 0l0 0.875q0.390625 -0.625 0.703125 -0.8125q0.3125 -0.203125 0.703125 -0.203125q0.5625 0 1.09375 0.3125l-0.515625 1.421875q-0.421875 -0.265625 -0.765625 -0.265625q-0.359375 0 -0.59375 0.203125q-0.234375 0.1875 -0.375 0.6875q-0.140625 0.484375 -0.140625 2.078125l0 1.921875z" fill-rule="nonzero"/><path fill="#000000" fill-opacity="0.0" d="m379.6614 439.85434l104.188995 0l0 33.921265l-104.188995 0z" fill-rule="evenodd"/><path fill="#000000" d="m392.8731 460.37433l0 -8.59375l1.640625 0l0 3.09375q0.765625 -0.859375 1.8125 -0.859375q1.125 0 1.875 0.828125q0.75 0.8125 0.75 2.359375q0 1.59375 -0.765625 2.453125q-0.765625 0.859375 -1.84375 0.859375q-0.53125 0 -1.046875 -0.265625q-0.515625 -0.265625 -0.890625 -0.796875l0 0.921875l-1.53125 0zm1.625 -3.25q0 0.96875 0.3125 1.4375q0.421875 0.65625 1.140625 0.65625q0.53125 0 0.921875 -0.46875q0.390625 -0.46875 0.390625 -1.46875q0 -1.0625 -0.390625 -1.53125q-0.390625 -0.484375 -1.0 -0.484375q-0.578125 0 -0.984375 0.46875q-0.390625 0.453125 -0.390625 1.390625zm9.376953 1.265625l1.640625 0.28125q-0.3125 0.90625 -1.0 1.375q-0.6875 0.46875 -1.703125 0.46875q-1.625 0 -2.40625 -1.0625q-0.625 -0.84375 -0.625 -2.140625q0 -1.546875 0.8125 -2.421875q0.8125 -0.875 2.046875 -0.875q1.390625 0 2.1875 0.921875q0.8125 0.90625 0.765625 2.796875l-4.125 0q0.03125 0.734375 0.40625 1.140625q0.375 0.40625 0.953125 0.40625q0.375 0 0.640625 -0.203125q0.265625 -0.21875 0.40625 -0.6875zm0.09375 -1.65625q-0.015625 -0.71875 -0.375 -1.09375q-0.34375 -0.375 -0.859375 -0.375q-0.53125 0 -0.890625 0.390625q-0.34375 0.40625 -0.34375 1.078125l2.46875 0zm8.626953 3.640625l-1.640625 0l0 -3.171875q0 -1.015625 -0.109375 -1.3125q-0.09375 -0.296875 -0.34375 -0.453125q-0.234375 -0.171875 -0.5625 -0.171875q-0.4375 0 -0.78125 0.234375q-0.328125 0.234375 -0.453125 0.625q-0.125 0.390625 -0.125 1.4375l0 2.8125l-1.65625 0l0 -6.21875l1.53125 0l0 0.90625q0.8125 -1.046875 2.0625 -1.046875q0.53125 0 0.984375 0.203125q0.453125 0.1875 0.6875 0.5q0.234375 0.296875 0.3125 0.6875q0.09375 0.375 0.09375 1.09375l0 3.875zm1.6738281 -7.0625l0 -1.53125l1.65625 0l0 1.53125l-1.65625 0zm0 7.0625l0 -6.21875l1.65625 0l0 6.21875l-1.65625 0zm3.1777344 0.40625l1.890625 0.234375q0.046875 0.328125 0.21875 0.453125q0.234375 0.171875 0.734375 0.171875q0.640625 0 0.96875 -0.1875q0.21875 -0.140625 0.328125 -0.421875q0.078125 -0.203125 0.078125 -0.75l0 -0.921875q-0.75 1.015625 -1.875 1.015625q-1.25 0 -1.984375 -1.0625q-0.5625 -0.84375 -0.5625 -2.078125q0 -1.578125 0.75 -2.390625q0.75 -0.828125 1.875 -0.828125q1.140625 0 1.890625 1.015625l0 -0.875l1.546875 0l0 5.578125q0 1.109375 -0.1875 1.640625q-0.171875 0.546875 -0.5 0.859375q-0.328125 0.3125 -0.875 0.484375q-0.546875 0.1875 -1.390625 0.1875q-1.578125 0 -2.25 -0.546875q-0.65625 -0.546875 -0.65625 -1.375q0 -0.078125 0 -0.203125zm1.484375 -3.640625q0 0.984375 0.375 1.453125q0.390625 0.453125 0.953125 0.453125q0.59375 0 1.015625 -0.46875q0.421875 -0.484375 0.421875 -1.40625q0 -0.96875 -0.40625 -1.4375q-0.390625 -0.46875 -1.0 -0.46875q-0.59375 0 -0.984375 0.46875q-0.375 0.453125 -0.375 1.40625zm11.658203 3.234375l-1.640625 0l0 -3.171875q0 -1.015625 -0.109375 -1.3125q-0.09375 -0.296875 -0.34375 -0.453125q-0.234375 -0.171875 -0.5625 -0.171875q-0.4375 0 -0.78125 0.234375q-0.328125 0.234375 -0.453125 0.625q-0.125 0.390625 -0.125 1.4375l0 2.8125l-1.65625 0l0 -6.21875l1.53125 0l0 0.90625q0.8125 -1.046875 2.0625 -1.046875q0.53125 0 0.984375 0.203125q0.453125 0.1875 0.6875 0.5q0.234375 0.296875 0.3125 0.6875q0.09375 0.375 0.09375 1.09375l0 3.875zm1.4863281 -2.296875l0 -1.640625l3.234375 0l0 1.640625l-3.234375 0zm3.6054688 0.515625l1.65625 -0.25q0.109375 0.484375 0.421875 0.734375q0.328125 0.25 0.90625 0.25q0.640625 0 0.953125 -0.234375q0.21875 -0.171875 0.21875 -0.4375q0 -0.1875 -0.109375 -0.3125q-0.125 -0.125 -0.546875 -0.21875q-2.0 -0.4375 -2.53125 -0.796875q-0.734375 -0.515625 -0.734375 -1.40625q0 -0.8125 0.625 -1.359375q0.640625 -0.546875 1.984375 -0.546875q1.28125 0 1.90625 0.421875q0.625 0.40625 0.859375 1.21875l-1.5625 0.28125q-0.09375 -0.359375 -0.375 -0.546875q-0.28125 -0.203125 -0.796875 -0.203125q-0.640625 0 -0.921875 0.1875q-0.1875 0.125 -0.1875 0.328125q0 0.1875 0.15625 0.3125q0.21875 0.15625 1.53125 0.453125q1.328125 0.296875 1.84375 0.734375q0.515625 0.4375 0.515625 1.21875q0 0.859375 -0.71875 1.484375q-0.703125 0.609375 -2.109375 0.609375q-1.265625 0 -2.015625 -0.515625q-0.734375 -0.515625 -0.96875 -1.40625zm10.861328 -0.203125l1.640625 0.28125q-0.3125 0.90625 -1.0 1.375q-0.6875 0.46875 -1.703125 0.46875q-1.625 0 -2.40625 -1.0625q-0.625 -0.84375 -0.625 -2.140625q0 -1.546875 0.8125 -2.421875q0.8125 -0.875 2.046875 -0.875q1.390625 0 2.1875 0.921875q0.8125 0.90625 0.765625 2.796875l-4.125 0q0.03125 0.734375 0.40625 1.140625q0.375 0.40625 0.953125 0.40625q0.375 0 0.640625 -0.203125q0.265625 -0.21875 0.40625 -0.6875zm0.09375 -1.65625q-0.015625 -0.71875 -0.375 -1.09375q-0.34375 -0.375 -0.859375 -0.375q-0.53125 0 -0.890625 0.390625q-0.34375 0.40625 -0.34375 1.078125l2.46875 0zm4.548828 3.640625l-1.640625 0l0 -6.21875l1.53125 0l0 0.875q0.390625 -0.625 0.703125 -0.8125q0.3125 -0.203125 0.703125 -0.203125q0.5625 0 1.09375 0.3125l-0.515625 1.421875q-0.421875 -0.265625 -0.765625 -0.265625q-0.359375 0 -0.59375 0.203125q-0.234375 0.1875 -0.375 0.6875q-0.140625 0.484375 -0.140625 2.078125l0 1.921875zm4.810547 0l-2.515625 -6.21875l1.734375 0l1.171875 3.171875l0.34375 1.0625q0.125 -0.40625 0.15625 -0.53125q0.09375 -0.265625 0.1875 -0.53125l1.171875 -3.171875l1.703125 0l-2.46875 6.21875l-1.484375 0zm8.564453 -1.984375l1.640625 0.28125q-0.3125 0.90625 -1.0 1.375q-0.6875 0.46875 -1.703125 0.46875q-1.625 0 -2.40625 -1.0625q-0.625 -0.84375 -0.625 -2.140625q0 -1.546875 0.8125 -2.421875q0.8125 -0.875 2.046875 -0.875q1.390625 0 2.1875 0.921875q0.8125 0.90625 0.765625 2.796875l-4.125 0q0.03125 0.734375 0.40625 1.140625q0.375 0.40625 0.953125 0.40625q0.375 0 0.640625 -0.203125q0.265625 -0.21875 0.40625 -0.6875zm0.09375 -1.65625q-0.015625 -0.71875 -0.375 -1.09375q-0.34375 -0.375 -0.859375 -0.375q-0.53125 0 -0.890625 0.390625q-0.34375 0.40625 -0.34375 1.078125l2.46875 0zm4.548828 3.640625l-1.640625 0l0 -6.21875l1.53125 0l0 0.875q0.390625 -0.625 0.703125 -0.8125q0.3125 -0.203125 0.703125 -0.203125q0.5625 0 1.09375 0.3125l-0.515625 1.421875q-0.421875 -0.265625 -0.765625 -0.265625q-0.359375 0 -0.59375 0.203125q-0.234375 0.1875 -0.375 0.6875q-0.140625 0.484375 -0.140625 2.078125l0 1.921875z" fill-rule="nonzero"/><path fill="#000000" fill-opacity="0.0" d="m387.92914 70.431755l104.188965 0l0 33.921265l-104.188965 0z" fill-rule="evenodd"/><path fill="#000000" d="m410.7824 90.95176l-1.640625 0l0 -6.21875l1.53125 0l0 0.875q0.390625 -0.625 0.703125 -0.8125q0.3125 -0.203125 0.703125 -0.203125q0.5625 0 1.09375 0.3125l-0.515625 1.421875q-0.421875 -0.265625 -0.765625 -0.265625q-0.359375 0 -0.59375 0.203125q-0.234375 0.1875 -0.375 0.6875q-0.140625 0.484375 -0.140625 2.078125l0 1.921875zm2.7167969 -3.203125q0 -0.8125 0.40625 -1.578125q0.40625 -0.78125 1.140625 -1.171875q0.734375 -0.40625 1.65625 -0.40625q1.40625 0 2.3125 0.921875q0.90625 0.90625 0.90625 2.3125q0 1.40625 -0.921875 2.34375q-0.90625 0.921875 -2.28125 0.921875q-0.859375 0 -1.640625 -0.390625q-0.765625 -0.390625 -1.171875 -1.125q-0.40625 -0.75 -0.40625 -1.828125zm1.6875 0.09375q0 0.921875 0.4375 1.421875q0.4375 0.484375 1.078125 0.484375q0.65625 0 1.078125 -0.484375q0.4375 -0.5 0.4375 -1.4375q0 -0.90625 -0.4375 -1.390625q-0.421875 -0.5 -1.078125 -0.5q-0.640625 0 -1.078125 0.5q-0.4375 0.484375 -0.4375 1.40625zm5.642578 -0.09375q0 -0.8125 0.40625 -1.578125q0.40625 -0.78125 1.140625 -1.171875q0.734375 -0.40625 1.65625 -0.40625q1.40625 0 2.3125 0.921875q0.90625 0.90625 0.90625 2.3125q0 1.40625 -0.921875 2.34375q-0.90625 0.921875 -2.28125 0.921875q-0.859375 0 -1.640625 -0.390625q-0.765625 -0.390625 -1.171875 -1.125q-0.40625 -0.75 -0.40625 -1.828125zm1.6875 0.09375q0 0.921875 0.4375 1.421875q0.4375 0.484375 1.078125 0.484375q0.65625 0 1.078125 -0.484375q0.4375 -0.5 0.4375 -1.4375q0 -0.90625 -0.4375 -1.390625q-0.421875 -0.5 -1.078125 -0.5q-0.640625 0 -1.078125 0.5q-0.4375 0.484375 -0.4375 1.40625zm8.876953 -3.109375l0 1.3125l-1.125 0l0 2.5q0 0.765625 0.03125 0.890625q0.03125 0.125 0.140625 0.21875q0.125 0.078125 0.28125 0.078125q0.234375 0 0.65625 -0.171875l0.140625 1.28125q-0.5625 0.25 -1.296875 0.25q-0.4375 0 -0.796875 -0.140625q-0.359375 -0.15625 -0.53125 -0.390625q-0.15625 -0.25 -0.234375 -0.640625q-0.046875 -0.296875 -0.046875 -1.171875l0 -2.703125l-0.75 0l0 -1.3125l0.75 0l0 -1.234375l1.65625 -0.96875l0 2.203125l1.125 0zm0.94921875 3.921875l0 -1.640625l3.234375 0l0 1.640625l-3.234375 0zm3.6054688 0.515625l1.65625 -0.25q0.109375 0.484375 0.421875 0.734375q0.328125 0.25 0.90625 0.25q0.640625 0 0.953125 -0.234375q0.21875 -0.171875 0.21875 -0.4375q0 -0.1875 -0.109375 -0.3125q-0.125 -0.125 -0.546875 -0.21875q-2.0 -0.4375 -2.53125 -0.796875q-0.734375 -0.515625 -0.734375 -1.40625q0 -0.8125 0.625 -1.359375q0.640625 -0.546875 1.984375 -0.546875q1.28125 0 1.90625 0.421875q0.625 0.40625 0.859375 1.21875l-1.5625 0.28125q-0.09375 -0.359375 -0.375 -0.546875q-0.28125 -0.203125 -0.796875 -0.203125q-0.640625 0 -0.921875 0.1875q-0.1875 0.125 -0.1875 0.328125q0 0.1875 0.15625 0.3125q0.21875 0.15625 1.53125 0.453125q1.328125 0.296875 1.84375 0.734375q0.515625 0.4375 0.515625 1.21875q0 0.859375 -0.71875 1.484375q-0.703125 0.609375 -2.109375 0.609375q-1.265625 0 -2.015625 -0.515625q-0.734375 -0.515625 -0.96875 -1.40625zm10.861328 -0.203125l1.640625 0.28125q-0.3125 0.90625 -1.0 1.375q-0.6875 0.46875 -1.703125 0.46875q-1.625 0 -2.40625 -1.0625q-0.625 -0.84375 -0.625 -2.140625q0 -1.546875 0.8125 -2.421875q0.8125 -0.875 2.046875 -0.875q1.390625 0 2.1875 0.921875q0.8125 0.90625 0.765625 2.796875l-4.125 0q0.03125 0.734375 0.40625 1.140625q0.375 0.40625 0.953125 0.40625q0.375 0 0.640625 -0.203125q0.265625 -0.21875 0.40625 -0.6875zm0.09375 -1.65625q-0.015625 -0.71875 -0.375 -1.09375q-0.34375 -0.375 -0.859375 -0.375q-0.53125 0 -0.890625 0.390625q-0.34375 0.40625 -0.34375 1.078125l2.46875 0zm4.548828 3.640625l-1.640625 0l0 -6.21875l1.53125 0l0 0.875q0.390625 -0.625 0.703125 -0.8125q0.3125 -0.203125 0.703125 -0.203125q0.5625 0 1.09375 0.3125l-0.515625 1.421875q-0.421875 -0.265625 -0.765625 -0.265625q-0.359375 0 -0.59375 0.203125q-0.234375 0.1875 -0.375 0.6875q-0.140625 0.484375 -0.140625 2.078125l0 1.921875zm4.810547 0l-2.515625 -6.21875l1.734375 0l1.171875 3.171875l0.34375 1.0625q0.125 -0.40625 0.15625 -0.53125q0.09375 -0.265625 0.1875 -0.53125l1.171875 -3.171875l1.703125 0l-2.46875 6.21875l-1.484375 0zm8.564453 -1.984375l1.640625 0.28125q-0.3125 0.90625 -1.0 1.375q-0.6875 0.46875 -1.703125 0.46875q-1.625 0 -2.40625 -1.0625q-0.625 -0.84375 -0.625 -2.140625q0 -1.546875 0.8125 -2.421875q0.8125 -0.875 2.046875 -0.875q1.390625 0 2.1875 0.921875q0.8125 0.90625 0.765625 2.796875l-4.125 0q0.03125 0.734375 0.40625 1.140625q0.375 0.40625 0.953125 0.40625q0.375 0 0.640625 -0.203125q0.265625 -0.21875 0.40625 -0.6875zm0.09375 -1.65625q-0.015625 -0.71875 -0.375 -1.09375q-0.34375 -0.375 -0.859375 -0.375q-0.53125 0 -0.890625 0.390625q-0.34375 0.40625 -0.34375 1.078125l2.46875 0zm4.548828 3.640625l-1.640625 0l0 -6.21875l1.53125 0l0 0.875q0.390625 -0.625 0.703125 -0.8125q0.3125 -0.203125 0.703125 -0.203125q0.5625 0 1.09375 0.3125l-0.515625 1.421875q-0.421875 -0.265625 -0.765625 -0.265625q-0.359375 0 -0.59375 0.203125q-0.234375 0.1875 -0.375 0.6875q-0.140625 0.484375 -0.140625 2.078125l0 1.921875z" fill-rule="nonzero"/><path fill="#000000" fill-opacity="0.0" d="m525.10236 191.06561l98.70868 0l0 48.472443l-98.70868 0z" fill-rule="evenodd"/><path fill="#000000" d="m535.84827 205.36687l1.515625 0l0 0.84375q0.828125 -0.984375 1.953125 -0.984375q0.59375 0 1.03125 0.25q0.4375 0.234375 0.71875 0.734375q0.40625 -0.5 0.875 -0.734375q0.484375 -0.25 1.03125 -0.25q0.671875 0 1.140625 0.28125q0.484375 0.265625 0.71875 0.8125q0.171875 0.390625 0.171875 1.28125l0 3.984375l-1.640625 0l0 -3.5625q0 -0.921875 -0.171875 -1.1875q-0.234375 -0.359375 -0.703125 -0.359375q-0.34375 0 -0.65625 0.21875q-0.296875 0.203125 -0.4375 0.609375q-0.140625 0.40625 -0.140625 1.296875l0 2.984375l-1.640625 0l0 -3.40625q0 -0.90625 -0.09375 -1.171875q-0.078125 -0.265625 -0.265625 -0.390625q-0.1875 -0.140625 -0.5 -0.140625q-0.375 0 -0.6875 0.21875q-0.296875 0.203125 -0.4375 0.59375q-0.125 0.375 -0.125 1.265625l0 3.03125l-1.65625 0l0 -6.21875zm12.029297 1.890625l-1.5 -0.265625q0.25 -0.90625 0.859375 -1.328125q0.625 -0.4375 1.84375 -0.4375q1.09375 0 1.625 0.265625q0.546875 0.25 0.765625 0.65625q0.21875 0.390625 0.21875 1.46875l-0.015625 1.921875q0 0.828125 0.078125 1.21875q0.078125 0.375 0.296875 0.828125l-1.625 0q-0.0625 -0.171875 -0.15625 -0.484375q-0.046875 -0.15625 -0.0625 -0.203125q-0.421875 0.421875 -0.90625 0.625q-0.46875 0.203125 -1.015625 0.203125q-0.96875 0 -1.53125 -0.515625q-0.546875 -0.53125 -0.546875 -1.328125q0 -0.53125 0.25 -0.9375q0.265625 -0.40625 0.71875 -0.625q0.453125 -0.234375 1.3125 -0.390625q1.140625 -0.21875 1.59375 -0.40625l0 -0.15625q0 -0.484375 -0.234375 -0.6875q-0.234375 -0.203125 -0.890625 -0.203125q-0.4375 0 -0.6875 0.171875q-0.234375 0.171875 -0.390625 0.609375zm2.203125 1.34375q-0.3125 0.09375 -1.0 0.25q-0.6875 0.140625 -0.90625 0.28125q-0.3125 0.234375 -0.3125 0.578125q0 0.34375 0.25 0.609375q0.265625 0.25 0.65625 0.25q0.453125 0 0.859375 -0.296875q0.296875 -0.21875 0.390625 -0.546875q0.0625 -0.203125 0.0625 -0.796875l0 -0.328125zm3.2363281 2.984375l0 -8.59375l1.65625 0l0 8.59375l-1.65625 0zm3.3339844 -7.0625l0 -1.53125l1.65625 0l0 1.53125l-1.65625 0zm0 7.0625l0 -6.21875l1.65625 0l0 6.21875l-1.65625 0zm8.755859 -4.390625l-1.609375 0.296875q-0.09375 -0.484375 -0.390625 -0.71875q-0.28125 -0.25 -0.734375 -0.25q-0.625 0 -1.0 0.421875q-0.359375 0.421875 -0.359375 1.421875q0 1.109375 0.375 1.5625q0.375 0.453125 1.0 0.453125q0.46875 0 0.765625 -0.265625q0.296875 -0.265625 0.421875 -0.921875l1.625 0.28125q-0.25 1.109375 -0.96875 1.6875q-0.71875 0.5625 -1.921875 0.5625q-1.359375 0 -2.171875 -0.859375q-0.8125 -0.859375 -0.8125 -2.390625q0 -1.53125 0.8125 -2.390625q0.8125 -0.859375 2.203125 -0.859375q1.140625 0 1.8125 0.484375q0.671875 0.484375 0.953125 1.484375zm1.2519531 -2.671875l0 -1.53125l1.65625 0l0 1.53125l-1.65625 0zm0 7.0625l0 -6.21875l1.65625 0l0 6.21875l-1.65625 0zm2.9589844 -3.203125q0 -0.8125 0.40625 -1.578125q0.40625 -0.78125 1.140625 -1.171875q0.734375 -0.40625 1.65625 -0.40625q1.40625 0 2.3125 0.921875q0.90625 0.90625 0.90625 2.3125q0 1.40625 -0.921875 2.34375q-0.90625 0.921875 -2.28125 0.921875q-0.859375 0 -1.640625 -0.390625q-0.765625 -0.390625 -1.171875 -1.125q-0.40625 -0.75 -0.40625 -1.828125zm1.6875 0.09375q0 0.921875 0.4375 1.421875q0.4375 0.484375 1.078125 0.484375q0.65625 0 1.078125 -0.484375q0.4375 -0.5 0.4375 -1.4375q0 -0.90625 -0.4375 -1.390625q-0.421875 -0.5 -1.078125 -0.5q-0.640625 0 -1.078125 0.5q-0.4375 0.484375 -0.4375 1.40625zm10.111328 3.109375l0 -0.9375q-0.328125 0.5 -0.890625 0.796875q-0.546875 0.28125 -1.171875 0.28125q-0.625 0 -1.125 -0.265625q-0.5 -0.28125 -0.71875 -0.78125q-0.21875 -0.5 -0.21875 -1.375l0 -3.9375l1.640625 0l0 2.859375q0 1.3125 0.09375 1.609375q0.09375 0.296875 0.328125 0.46875q0.25 0.171875 0.609375 0.171875q0.421875 0 0.75 -0.234375q0.34375 -0.234375 0.46875 -0.578125q0.125 -0.34375 0.125 -1.671875l0 -2.625l1.640625 0l0 6.21875l-1.53125 0zm2.6582031 -1.78125l1.65625 -0.25q0.109375 0.484375 0.421875 0.734375q0.328125 0.25 0.90625 0.25q0.640625 0 0.953125 -0.234375q0.21875 -0.171875 0.21875 -0.4375q0 -0.1875 -0.109375 -0.3125q-0.125 -0.125 -0.546875 -0.21875q-2.0 -0.4375 -2.53125 -0.796875q-0.734375 -0.515625 -0.734375 -1.40625q0 -0.8125 0.625 -1.359375q0.640625 -0.546875 1.984375 -0.546875q1.28125 0 1.90625 0.421875q0.625 0.40625 0.859375 1.21875l-1.5625 0.28125q-0.09375 -0.359375 -0.375 -0.546875q-0.28125 -0.203125 -0.796875 -0.203125q-0.640625 0 -0.921875 0.1875q-0.1875 0.125 -0.1875 0.328125q0 0.1875 0.15625 0.3125q0.21875 0.15625 1.53125 0.453125q1.328125 0.296875 1.84375 0.734375q0.515625 0.4375 0.515625 1.21875q0 0.859375 -0.71875 1.484375q-0.703125 0.609375 -2.109375 0.609375q-1.265625 0 -2.015625 -0.515625q-0.734375 -0.515625 -0.96875 -1.40625zm7.064453 -0.515625l0 -1.640625l3.234375 0l0 1.640625l-3.234375 0zm5.7617188 2.296875l-1.640625 0l0 -6.21875l1.53125 0l0 0.875q0.390625 -0.625 0.703125 -0.8125q0.3125 -0.203125 0.703125 -0.203125q0.5625 0 1.09375 0.3125l-0.515625 1.421875q-0.421875 -0.265625 -0.765625 -0.265625q-0.359375 0 -0.59375 0.203125q-0.234375 0.1875 -0.375 0.6875q-0.140625 0.484375 -0.140625 2.078125l0 1.921875zm6.701172 -1.984375l1.640625 0.28125q-0.3125 0.90625 -1.0 1.375q-0.6875 0.46875 -1.703125 0.46875q-1.625 0 -2.40625 -1.0625q-0.625 -0.84375 -0.625 -2.140625q0 -1.546875 0.8125 -2.421875q0.8125 -0.875 2.046875 -0.875q1.390625 0 2.1875 0.921875q0.8125 0.90625 0.765625 2.796875l-4.125 0q0.03125 0.734375 0.40625 1.140625q0.375 0.40625 0.953125 0.40625q0.375 0 0.640625 -0.203125q0.265625 -0.21875 0.40625 -0.6875zm0.09375 -1.65625q-0.015625 -0.71875 -0.375 -1.09375q-0.34375 -0.375 -0.859375 -0.375q-0.53125 0 -0.890625 0.390625q-0.34375 0.40625 -0.34375 1.078125l2.46875 0zm2.2519531 -2.578125l0.921875 0l0 -0.46875q0 -0.796875 0.15625 -1.171875q0.171875 -0.390625 0.609375 -0.625q0.453125 -0.25 1.140625 -0.25q0.703125 0 1.375 0.203125l-0.21875 1.15625q-0.390625 -0.09375 -0.75 -0.09375q-0.359375 0 -0.515625 0.171875q-0.15625 0.15625 -0.15625 0.640625l0 0.4375l1.234375 0l0 1.296875l-1.234375 0l0 4.921875l-1.640625 0l0 -4.921875l-0.921875 0l0 -1.296875zm4.5273438 3.921875l0 -1.640625l3.234375 0l0 1.640625l-3.234375 0z" fill-rule="nonzero"/><path fill="#000000" d="m556.72034 224.20438l1.65625 -0.25q0.109375 0.484375 0.421875 0.734375q0.328125 0.25 0.90625 0.25q0.640625 0 0.953125 -0.234375q0.21875 -0.171875 0.21875 -0.4375q0 -0.1875 -0.109375 -0.3125q-0.125 -0.125 -0.546875 -0.21875q-2.0 -0.4375 -2.53125 -0.796875q-0.734375 -0.515625 -0.734375 -1.40625q0 -0.8125 0.625 -1.359375q0.640625 -0.546875 1.984375 -0.546875q1.28125 0 1.90625 0.421875q0.625 0.40625 0.859375 1.21875l-1.5625 0.28125q-0.09375 -0.359375 -0.375 -0.546875q-0.28125 -0.203125 -0.796875 -0.203125q-0.640625 0 -0.921875 0.1875q-0.1875 0.125 -0.1875 0.328125q0 0.1875 0.15625 0.3125q0.21875 0.15625 1.53125 0.453125q1.328125 0.296875 1.84375 0.734375q0.515625 0.4375 0.515625 1.21875q0 0.859375 -0.71875 1.484375q-0.703125 0.609375 -2.109375 0.609375q-1.265625 0 -2.015625 -0.515625q-0.734375 -0.515625 -0.96875 -1.40625zm10.861328 -0.203125l1.640625 0.28125q-0.3125 0.90625 -1.0 1.375q-0.6875 0.46875 -1.703125 0.46875q-1.625 0 -2.40625 -1.0625q-0.625 -0.84375 -0.625 -2.140625q0 -1.546875 0.8125 -2.421875q0.8125 -0.875 2.046875 -0.875q1.390625 0 2.1875 0.921875q0.8125 0.90625 0.765625 2.796875l-4.125 0q0.03125 0.734375 0.40625 1.140625q0.375 0.40625 0.953125 0.40625q0.375 0 0.640625 -0.203125q0.265625 -0.21875 0.40625 -0.6875zm0.09375 -1.65625q-0.015625 -0.71875 -0.375 -1.09375q-0.34375 -0.375 -0.859375 -0.375q-0.53125 0 -0.890625 0.390625q-0.34375 0.40625 -0.34375 1.078125l2.46875 0zm4.548828 3.640625l-1.640625 0l0 -6.21875l1.53125 0l0 0.875q0.390625 -0.625 0.703125 -0.8125q0.3125 -0.203125 0.703125 -0.203125q0.5625 0 1.09375 0.3125l-0.515625 1.421875q-0.421875 -0.265625 -0.765625 -0.265625q-0.359375 0 -0.59375 0.203125q-0.234375 0.1875 -0.375 0.6875q-0.140625 0.484375 -0.140625 2.078125l0 1.921875zm4.810547 0l-2.515625 -6.21875l1.734375 0l1.171875 3.171875l0.34375 1.0625q0.125 -0.40625 0.15625 -0.53125q0.09375 -0.265625 0.1875 -0.53125l1.171875 -3.171875l1.703125 0l-2.46875 6.21875l-1.484375 0zm8.564453 -1.984375l1.640625 0.28125q-0.3125 0.90625 -1.0 1.375q-0.6875 0.46875 -1.703125 0.46875q-1.625 0 -2.40625 -1.0625q-0.625 -0.84375 -0.625 -2.140625q0 -1.546875 0.8125 -2.421875q0.8125 -0.875 2.046875 -0.875q1.390625 0 2.1875 0.921875q0.8125 0.90625 0.765625 2.796875l-4.125 0q0.03125 0.734375 0.40625 1.140625q0.375 0.40625 0.953125 0.40625q0.375 0 0.640625 -0.203125q0.265625 -0.21875 0.40625 -0.6875zm0.09375 -1.65625q-0.015625 -0.71875 -0.375 -1.09375q-0.34375 -0.375 -0.859375 -0.375q-0.53125 0 -0.890625 0.390625q-0.34375 0.40625 -0.34375 1.078125l2.46875 0zm4.548828 3.640625l-1.640625 0l0 -6.21875l1.53125 0l0 0.875q0.390625 -0.625 0.703125 -0.8125q0.3125 -0.203125 0.703125 -0.203125q0.5625 0 1.09375 0.3125l-0.515625 1.421875q-0.421875 -0.265625 -0.765625 -0.265625q-0.359375 0 -0.59375 0.203125q-0.234375 0.1875 -0.375 0.6875q-0.140625 0.484375 -0.140625 2.078125l0 1.921875z" fill-rule="nonzero"/><path fill="#000000" fill-opacity="0.0" d="m522.3622 316.81235l104.189026 0l0 48.472443l-104.189026 0z" fill-rule="evenodd"/><path fill="#000000" d="m534.84924 331.1136l1.515625 0l0 0.84375q0.828125 -0.984375 1.953125 -0.984375q0.59375 0 1.03125 0.25q0.4375 0.234375 0.71875 0.734375q0.40625 -0.5 0.875 -0.734375q0.484375 -0.25 1.03125 -0.25q0.671875 0 1.140625 0.28125q0.484375 0.265625 0.71875 0.8125q0.171875 0.390625 0.171875 1.28125l0 3.984375l-1.640625 0l0 -3.5625q0 -0.921875 -0.171875 -1.1875q-0.234375 -0.359375 -0.703125 -0.359375q-0.34375 0 -0.65625 0.21875q-0.296875 0.203125 -0.4375 0.609375q-0.140625 0.40625 -0.140625 1.296875l0 2.984375l-1.640625 0l0 -3.40625q0 -0.90625 -0.09375 -1.171875q-0.078125 -0.265625 -0.265625 -0.390625q-0.1875 -0.140625 -0.5 -0.140625q-0.375 0 -0.6875 0.21875q-0.296875 0.203125 -0.4375 0.59375q-0.125 0.375 -0.125 1.265625l0 3.03125l-1.65625 0l0 -6.21875zm12.029297 1.890625l-1.5 -0.265625q0.25 -0.90625 0.859375 -1.328125q0.625 -0.4375 1.84375 -0.4375q1.09375 0 1.625 0.265625q0.546875 0.25 0.765625 0.65625q0.21875 0.390625 0.21875 1.46875l-0.015625 1.921875q0 0.828125 0.078125 1.21875q0.078125 0.375 0.296875 0.828125l-1.625 0q-0.0625 -0.171875 -0.15625 -0.484375q-0.046875 -0.15625 -0.0625 -0.203125q-0.421875 0.421875 -0.90625 0.625q-0.46875 0.203125 -1.015625 0.203125q-0.96875 0 -1.53125 -0.515625q-0.546875 -0.53125 -0.546875 -1.328125q0 -0.53125 0.25 -0.9375q0.265625 -0.40625 0.71875 -0.625q0.453125 -0.234375 1.3125 -0.390625q1.140625 -0.21875 1.59375 -0.40625l0 -0.15625q0 -0.484375 -0.234375 -0.6875q-0.234375 -0.203125 -0.890625 -0.203125q-0.4375 0 -0.6875 0.171875q-0.234375 0.171875 -0.390625 0.609375zm2.203125 1.34375q-0.3125 0.09375 -1.0 0.25q-0.6875 0.140625 -0.90625 0.28125q-0.3125 0.234375 -0.3125 0.578125q0 0.34375 0.25 0.609375q0.265625 0.25 0.65625 0.25q0.453125 0 0.859375 -0.296875q0.296875 -0.21875 0.390625 -0.546875q0.0625 -0.203125 0.0625 -0.796875l0 -0.328125zm3.2363281 2.984375l0 -8.59375l1.65625 0l0 8.59375l-1.65625 0zm3.3339844 -7.0625l0 -1.53125l1.65625 0l0 1.53125l-1.65625 0zm0 7.0625l0 -6.21875l1.65625 0l0 6.21875l-1.65625 0zm8.755859 -4.390625l-1.609375 0.296875q-0.09375 -0.484375 -0.390625 -0.71875q-0.28125 -0.25 -0.734375 -0.25q-0.625 0 -1.0 0.421875q-0.359375 0.421875 -0.359375 1.421875q0 1.109375 0.375 1.5625q0.375 0.453125 1.0 0.453125q0.46875 0 0.765625 -0.265625q0.296875 -0.265625 0.421875 -0.921875l1.625 0.28125q-0.25 1.109375 -0.96875 1.6875q-0.71875 0.5625 -1.921875 0.5625q-1.359375 0 -2.171875 -0.859375q-0.8125 -0.859375 -0.8125 -2.390625q0 -1.53125 0.8125 -2.390625q0.8125 -0.859375 2.203125 -0.859375q1.140625 0 1.8125 0.484375q0.671875 0.484375 0.953125 1.484375zm1.2519531 -2.671875l0 -1.53125l1.65625 0l0 1.53125l-1.65625 0zm0 7.0625l0 -6.21875l1.65625 0l0 6.21875l-1.65625 0zm2.9589844 -3.203125q0 -0.8125 0.40625 -1.578125q0.40625 -0.78125 1.140625 -1.171875q0.734375 -0.40625 1.65625 -0.40625q1.40625 0 2.3125 0.921875q0.90625 0.90625 0.90625 2.3125q0 1.40625 -0.921875 2.34375q-0.90625 0.921875 -2.28125 0.921875q-0.859375 0 -1.640625 -0.390625q-0.765625 -0.390625 -1.171875 -1.125q-0.40625 -0.75 -0.40625 -1.828125zm1.6875 0.09375q0 0.921875 0.4375 1.421875q0.4375 0.484375 1.078125 0.484375q0.65625 0 1.078125 -0.484375q0.4375 -0.5 0.4375 -1.4375q0 -0.90625 -0.4375 -1.390625q-0.421875 -0.5 -1.078125 -0.5q-0.640625 0 -1.078125 0.5q-0.4375 0.484375 -0.4375 1.40625zm10.111328 3.109375l0 -0.9375q-0.328125 0.5 -0.890625 0.796875q-0.546875 0.28125 -1.171875 0.28125q-0.625 0 -1.125 -0.265625q-0.5 -0.28125 -0.71875 -0.78125q-0.21875 -0.5 -0.21875 -1.375l0 -3.9375l1.640625 0l0 2.859375q0 1.3125 0.09375 1.609375q0.09375 0.296875 0.328125 0.46875q0.25 0.171875 0.609375 0.171875q0.421875 0 0.75 -0.234375q0.34375 -0.234375 0.46875 -0.578125q0.125 -0.34375 0.125 -1.671875l0 -2.625l1.640625 0l0 6.21875l-1.53125 0zm2.6582031 -1.78125l1.65625 -0.25q0.109375 0.484375 0.421875 0.734375q0.328125 0.25 0.90625 0.25q0.640625 0 0.953125 -0.234375q0.21875 -0.171875 0.21875 -0.4375q0 -0.1875 -0.109375 -0.3125q-0.125 -0.125 -0.546875 -0.21875q-2.0 -0.4375 -2.53125 -0.796875q-0.734375 -0.515625 -0.734375 -1.40625q0 -0.8125 0.625 -1.359375q0.640625 -0.546875 1.984375 -0.546875q1.28125 0 1.90625 0.421875q0.625 0.40625 0.859375 1.21875l-1.5625 0.28125q-0.09375 -0.359375 -0.375 -0.546875q-0.28125 -0.203125 -0.796875 -0.203125q-0.640625 0 -0.921875 0.1875q-0.1875 0.125 -0.1875 0.328125q0 0.1875 0.15625 0.3125q0.21875 0.15625 1.53125 0.453125q1.328125 0.296875 1.84375 0.734375q0.515625 0.4375 0.515625 1.21875q0 0.859375 -0.71875 1.484375q-0.703125 0.609375 -2.109375 0.609375q-1.265625 0 -2.015625 -0.515625q-0.734375 -0.515625 -0.96875 -1.40625zm7.064453 -0.515625l0 -1.640625l3.234375 0l0 1.640625l-3.234375 0zm9.886719 2.296875l-1.515625 0l0 -0.921875q-0.390625 0.546875 -0.90625 0.8125q-0.515625 0.25 -1.046875 0.25q-1.078125 0 -1.84375 -0.859375q-0.75 -0.875 -0.75 -2.421875q0 -1.578125 0.734375 -2.390625q0.75 -0.828125 1.890625 -0.828125q1.03125 0 1.796875 0.859375l0 -3.09375l1.640625 0l0 8.59375zm-4.390625 -3.25q0 1.0 0.28125 1.4375q0.390625 0.65625 1.109375 0.65625q0.5625 0 0.953125 -0.484375q0.40625 -0.484375 0.40625 -1.453125q0 -1.0625 -0.390625 -1.53125q-0.375 -0.484375 -0.984375 -0.484375q-0.578125 0 -0.984375 0.46875q-0.390625 0.46875 -0.390625 1.390625zm9.626953 1.265625l1.640625 0.28125q-0.3125 0.90625 -1.0 1.375q-0.6875 0.46875 -1.703125 0.46875q-1.625 0 -2.40625 -1.0625q-0.625 -0.84375 -0.625 -2.140625q0 -1.546875 0.8125 -2.421875q0.8125 -0.875 2.046875 -0.875q1.390625 0 2.1875 0.921875q0.8125 0.90625 0.765625 2.796875l-4.125 0q0.03125 0.734375 0.40625 1.140625q0.375 0.40625 0.953125 0.40625q0.375 0 0.640625 -0.203125q0.265625 -0.21875 0.40625 -0.6875zm0.09375 -1.65625q-0.015625 -0.71875 -0.375 -1.09375q-0.34375 -0.375 -0.859375 -0.375q-0.53125 0 -0.890625 0.390625q-0.34375 0.40625 -0.34375 1.078125l2.46875 0zm2.9707031 3.640625l0 -8.59375l1.65625 0l0 8.59375l-1.65625 0zm3.1464844 -2.296875l0 -1.640625l3.234375 0l0 1.640625l-3.234375 0z" fill-rule="nonzero"/><path fill="#000000" d="m556.72034 349.95108l1.65625 -0.25q0.109375 0.484375 0.421875 0.734375q0.328125 0.25 0.90625 0.25q0.640625 0 0.953125 -0.234375q0.21875 -0.171875 0.21875 -0.4375q0 -0.1875 -0.109375 -0.3125q-0.125 -0.125 -0.546875 -0.21875q-2.0 -0.4375 -2.53125 -0.796875q-0.734375 -0.515625 -0.734375 -1.40625q0 -0.8125 0.625 -1.359375q0.640625 -0.546875 1.984375 -0.546875q1.28125 0 1.90625 0.421875q0.625 0.40625 0.859375 1.21875l-1.5625 0.28125q-0.09375 -0.359375 -0.375 -0.546875q-0.28125 -0.203125 -0.796875 -0.203125q-0.640625 0 -0.921875 0.1875q-0.1875 0.125 -0.1875 0.328125q0 0.1875 0.15625 0.3125q0.21875 0.15625 1.53125 0.453125q1.328125 0.296875 1.84375 0.734375q0.515625 0.4375 0.515625 1.21875q0 0.859375 -0.71875 1.484375q-0.703125 0.609375 -2.109375 0.609375q-1.265625 0 -2.015625 -0.515625q-0.734375 -0.515625 -0.96875 -1.40625zm10.861328 -0.203125l1.640625 0.28125q-0.3125 0.90625 -1.0 1.375q-0.6875 0.46875 -1.703125 0.46875q-1.625 0 -2.40625 -1.0625q-0.625 -0.84375 -0.625 -2.140625q0 -1.546875 0.8125 -2.421875q0.8125 -0.875 2.046875 -0.875q1.390625 0 2.1875 0.921875q0.8125 0.90625 0.765625 2.796875l-4.125 0q0.03125 0.734375 0.40625 1.140625q0.375 0.40625 0.953125 0.40625q0.375 0 0.640625 -0.203125q0.265625 -0.21875 0.40625 -0.6875zm0.09375 -1.65625q-0.015625 -0.71875 -0.375 -1.09375q-0.34375 -0.375 -0.859375 -0.375q-0.53125 0 -0.890625 0.390625q-0.34375 0.40625 -0.34375 1.078125l2.46875 0zm4.548828 3.640625l-1.640625 0l0 -6.21875l1.53125 0l0 0.875q0.390625 -0.625 0.703125 -0.8125q0.3125 -0.203125 0.703125 -0.203125q0.5625 0 1.09375 0.3125l-0.515625 1.421875q-0.421875 -0.265625 -0.765625 -0.265625q-0.359375 0 -0.59375 0.203125q-0.234375 0.1875 -0.375 0.6875q-0.140625 0.484375 -0.140625 2.078125l0 1.921875zm4.810547 0l-2.515625 -6.21875l1.734375 0l1.171875 3.171875l0.34375 1.0625q0.125 -0.40625 0.15625 -0.53125q0.09375 -0.265625 0.1875 -0.53125l1.171875 -3.171875l1.703125 0l-2.46875 6.21875l-1.484375 0zm8.564453 -1.984375l1.640625 0.28125q-0.3125 0.90625 -1.0 1.375q-0.6875 0.46875 -1.703125 0.46875q-1.625 0 -2.40625 -1.0625q-0.625 -0.84375 -0.625 -2.140625q0 -1.546875 0.8125 -2.421875q0.8125 -0.875 2.046875 -0.875q1.390625 0 2.1875 0.921875q0.8125 0.90625 0.765625 2.796875l-4.125 0q0.03125 0.734375 0.40625 1.140625q0.375 0.40625 0.953125 0.40625q0.375 0 0.640625 -0.203125q0.265625 -0.21875 0.40625 -0.6875zm0.09375 -1.65625q-0.015625 -0.71875 -0.375 -1.09375q-0.34375 -0.375 -0.859375 -0.375q-0.53125 0 -0.890625 0.390625q-0.34375 0.40625 -0.34375 1.078125l2.46875 0zm4.548828 3.640625l-1.640625 0l0 -6.21875l1.53125 0l0 0.875q0.390625 -0.625 0.703125 -0.8125q0.3125 -0.203125 0.703125 -0.203125q0.5625 0 1.09375 0.3125l-0.515625 1.421875q-0.421875 -0.265625 -0.765625 -0.265625q-0.359375 0 -0.59375 0.203125q-0.234375 0.1875 -0.375 0.6875q-0.140625 0.484375 -0.140625 2.078125l0 1.921875z" fill-rule="nonzero"/><path fill="#e69138" d="m76.16535 127.17454l10.771652 0l0 16.031502l-10.771652 0z" fill-rule="evenodd"/><path stroke="#e69138" stroke-width="1.0" stroke-linejoin="round" stroke-linecap="butt" d="m76.16535 127.17454l10.771652 0l0 16.031502l-10.771652 0z" fill-rule="evenodd"/><path fill="#000000" fill-opacity="0.0" d="m64.66915 120.938324l22.267715 0l0 22.267715l-22.267715 0z" fill-rule="evenodd"/><path stroke="#6aa84f" stroke-width="2.0" stroke-linejoin="round" stroke-linecap="butt" d="m64.66915 120.938324l22.267715 0l0 22.267715l-22.267715 0z" fill-rule="evenodd"/><path fill="#000000" fill-opacity="0.0" d="m76.16539 127.1746l22.267715 0l0 22.267723l-22.267715 0z" fill-rule="evenodd"/><path stroke="#3d85c6" stroke-width="2.0" stroke-linejoin="round" stroke-linecap="butt" d="m76.16539 127.1746l22.267715 0l0 22.267723l-22.267715 0z" fill-rule="evenodd"/><path fill="#e69138" d="m67.238846 304.17978l10.771652 0l0 16.031494l-10.771652 0z" fill-rule="evenodd"/><path fill="#000000" fill-opacity="0.0" d="m55.755764 297.94882l22.26772 0l0 22.2677l-22.26772 0z" fill-rule="evenodd"/><path stroke="#6aa84f" stroke-width="2.0" stroke-linejoin="round" stroke-linecap="butt" d="m55.755764 297.94882l22.26772 0l0 22.2677l-22.26772 0z" fill-rule="evenodd"/><path fill="#000000" fill-opacity="0.0" d="m66.64308 303.7389l22.267715 0l0 22.26773l-22.267715 0z" fill-rule="evenodd"/><path stroke="#3d85c6" stroke-width="2.0" stroke-linejoin="round" stroke-linecap="butt" d="m66.64308 303.7389l22.267715 0l0 22.26773l-22.267715 0z" fill-rule="evenodd"/><path fill="#e69138" d="m283.29398 223.48688l10.771637 0l0 16.031494l-10.771637 0z" fill-rule="evenodd"/><path fill="#000000" fill-opacity="0.0" d="m271.81088 217.2559l22.26773 0l0 22.267715l-22.26773 0z" fill-rule="evenodd"/><path stroke="#6aa84f" stroke-width="2.0" stroke-linejoin="round" stroke-linecap="butt" d="m271.81088 217.2559l22.26773 0l0 22.267715l-22.26773 0z" fill-rule="evenodd"/><path fill="#000000" fill-opacity="0.0" d="m282.6982 223.04599l22.2677 0l0 22.267715l-22.2677 0z" fill-rule="evenodd"/><path stroke="#3d85c6" stroke-width="2.0" stroke-linejoin="round" stroke-linecap="butt" d="m282.6982 223.04599l22.2677 0l0 22.267715l-22.2677 0z" fill-rule="evenodd"/><path fill="#e69138" d="m434.92914 48.60499l10.771637 0l0 16.031494l-10.771637 0z" fill-rule="evenodd"/><path fill="#000000" fill-opacity="0.0" d="m423.44604 42.374016l22.26773 0l0 22.267715l-22.26773 0z" fill-rule="evenodd"/><path stroke="#6aa84f" stroke-width="2.0" stroke-linejoin="round" stroke-linecap="butt" d="m423.44604 42.374016l22.26773 0l0 22.267715l-22.26773 0z" fill-rule="evenodd"/><path fill="#000000" fill-opacity="0.0" d="m434.33337 48.1641l22.2677 0l0 22.267715l-22.2677 0z" fill-rule="evenodd"/><path stroke="#3d85c6" stroke-width="2.0" stroke-linejoin="round" stroke-linecap="butt" d="m434.33337 48.1641l22.2677 0l0 22.267715l-22.2677 0z" fill-rule="evenodd"/><path fill="#e69138" d="m569.3622 171.00131l10.7716675 0l0 16.031494l-10.7716675 0z" fill-rule="evenodd"/><path fill="#000000" fill-opacity="0.0" d="m557.87915 164.77034l22.2677 0l0 22.267715l-22.2677 0z" fill-rule="evenodd"/><path stroke="#6aa84f" stroke-width="2.0" stroke-linejoin="round" stroke-linecap="butt" d="m557.87915 164.77034l22.2677 0l0 22.267715l-22.2677 0z" fill-rule="evenodd"/><path fill="#000000" fill-opacity="0.0" d="m568.7664 170.56042l22.267761 0l0 22.267715l-22.267761 0z" fill-rule="evenodd"/><path stroke="#3d85c6" stroke-width="2.0" stroke-linejoin="round" stroke-linecap="butt" d="m568.7664 170.56042l22.267761 0l0 22.267715l-22.267761 0z" fill-rule="evenodd"/><path fill="#e69138" d="m569.3622 297.2349l10.7716675 0l0 16.031525l-10.7716675 0z" fill-rule="evenodd"/><path fill="#000000" fill-opacity="0.0" d="m557.87915 291.00394l22.2677 0l0 22.26773l-22.2677 0z" fill-rule="evenodd"/><path stroke="#6aa84f" stroke-width="2.0" stroke-linejoin="round" stroke-linecap="butt" d="m557.87915 291.00394l22.2677 0l0 22.26773l-22.2677 0z" fill-rule="evenodd"/><path fill="#000000" fill-opacity="0.0" d="m568.7664 296.79404l22.267761 0l0 22.2677l-22.267761 0z" fill-rule="evenodd"/><path stroke="#3d85c6" stroke-width="2.0" stroke-linejoin="round" stroke-linecap="butt" d="m568.7664 296.79404l22.267761 0l0 22.2677l-22.267761 0z" fill-rule="evenodd"/><path fill="#e69138" d="m426.6614 420.23752l10.7716675 0l0 16.031525l-10.7716675 0z" fill-rule="evenodd"/><path fill="#000000" fill-opacity="0.0" d="m415.17834 414.00656l22.2677 0l0 22.26773l-22.2677 0z" fill-rule="evenodd"/><path stroke="#6aa84f" stroke-width="2.0" stroke-linejoin="round" stroke-linecap="butt" d="m415.17834 414.00656l22.2677 0l0 22.26773l-22.2677 0z" fill-rule="evenodd"/><path fill="#000000" fill-opacity="0.0" d="m426.06564 419.79666l22.26773 0l0 22.2677l-22.26773 0z" fill-rule="evenodd"/><path stroke="#3d85c6" stroke-width="2.0" stroke-linejoin="round" stroke-linecap="butt" d="m426.06564 419.79666l22.26773 0l0 22.2677l-22.26773 0z" fill-rule="evenodd"/></g></svg>
